<svg xmlns="http://www.w3.org/2000/svg" viewBox="0 0 900 520" role="img" aria-labelledby="title desc">
  <title id="title">Hospital landing page illustration</title>
  <desc id="desc">A clean hospital website landing page with medical cross, appointment card, and healthcare sections.</desc>
  <defs>
    <linearGradient id="bg" x1="0" y1="0" x2="1" y2="1">
      <stop offset="0" stop-color="#07120f"/>
      <stop offset=".55" stop-color="#123127"/>
      <stop offset="1" stop-color="#09221d"/>
    </linearGradient>
    <linearGradient id="medical" x1="0" y1="0" x2="1" y2="0">
      <stop offset="0" stop-color="#5eead4"/>
      <stop offset="1" stop-color="#b8ff5c"/>
    </linearGradient>
  </defs>

  <rect width="900" height="520" rx="34" fill="url(#bg)"/>
  <path d="M0 104H900M0 208H900M0 312H900M0 416H900M120 0V520M260 0V520M400 0V520M540 0V520M680 0V520M820 0V520" stroke="#b8ff5c" stroke-opacity=".08" stroke-width="2"/>

  <rect x="62" y="58" width="776" height="404" rx="26" fill="#081713" stroke="#e9fff6" stroke-width="4"/>
  <rect x="96" y="94" width="708" height="64" rx="18" fill="#0d1f1a" stroke="#34d399" stroke-opacity=".5" stroke-width="3"/>
  <rect x="126" y="115" width="34" height="34" rx="8" fill="url(#medical)"/>
  <rect x="138" y="105" width="10" height="54" rx="5" fill="#07120f"/>
  <rect x="116" y="127" width="54" height="10" rx="5" fill="#07120f"/>
  <rect x="608" y="114" width="144" height="28" rx="14" fill="#34d399"/>

  <rect x="104" y="204" width="326" height="34" rx="10" fill="#e9fff6"/>
  <rect x="104" y="258" width="430" height="22" rx="8" fill="#8fb7aa"/>
  <rect x="104" y="296" width="364" height="22" rx="8" fill="#8fb7aa"/>
  <rect x="104" y="358" width="142" height="48" rx="24" fill="#b8ff5c"/>

  <rect x="588" y="204" width="182" height="202" rx="22" fill="#0d1f1a" stroke="#5eead4" stroke-width="4"/>
  <circle cx="679" cy="270" r="42" fill="#34d399"/>
  <rect x="650" y="342" width="58" height="12" rx="6" fill="#b8ff5c"/>
  <rect x="632" y="370" width="94" height="12" rx="6" fill="#5eead4"/>

  <g fill="#0d1f1a" stroke="#e9fff6" stroke-width="3">
    <rect x="104" y="430" width="154" height="46" rx="14"/>
    <rect x="278" y="430" width="154" height="46" rx="14"/>
    <rect x="452" y="430" width="154" height="46" rx="14"/>
  </g>
  <text x="137" y="460" fill="#5eead4" font-family="Inter, Arial, sans-serif" font-size="20" font-weight="800">Fortis</text>
  <text x="325" y="460" fill="#b8ff5c" font-family="Inter, Arial, sans-serif" font-size="20" font-weight="800">Max</text>
  <text x="489" y="460" fill="#34d399" font-family="Inter, Arial, sans-serif" font-size="20" font-weight="800">HTML CSS</text>
</svg>
